<?xml version="1.0" encoding="UTF-8"?>
<svg id="Layer_1" xmlns="http://www.w3.org/2000/svg" xmlns:xlink="http://www.w3.org/1999/xlink" version="1.1" viewBox="0 0 784.8 532.8">
  <!-- Generator: Adobe Illustrator 30.0.0, SVG Export Plug-In . SVG Version: 2.1.1 Build 123)  -->
  <defs>
    <style>
      .st0, .st1, .st2 {
        fill: none;
      }

      .st3, .st4, .st5, .st6, .st7, .st8 {
        stroke: #000;
      }

      .st3, .st4, .st8 {
        stroke-width: .7px;
      }

      .st3, .st7 {
        fill: #fdd0a2;
      }

      .st4, .st6 {
        fill: #bcd9f0;
      }

      .st9 {
        font-family: Helvetica, Helvetica;
      }

      .st9, .st10, .st11, .st12 {
        font-size: 12px;
        isolation: isolate;
      }

      .st13, .st10 {
        fill: #525252;
      }

      .st1, .st2 {
        stroke: #525252;
        stroke-linecap: round;
        stroke-linejoin: round;
        stroke-width: .8px;
      }

      .st14 {
        clip-path: url(#clippath-1);
      }

      .st15 {
        clip-path: url(#clippath-3);
      }

      .st16 {
        clip-path: url(#clippath-4);
      }

      .st17 {
        clip-path: url(#clippath-2);
      }

      .st18 {
        clip-path: url(#clippath-7);
      }

      .st19 {
        clip-path: url(#clippath-6);
      }

      .st20 {
        clip-path: url(#clippath-9);
      }

      .st21 {
        clip-path: url(#clippath-8);
      }

      .st22 {
        clip-path: url(#clippath-5);
      }

      .st23 {
        fill: #fff;
      }

      .st5, .st8 {
        fill: #d9d9d9;
      }

      .st10 {
        font-family: Helvetica-Oblique, Helvetica;
        font-style: oblique;
      }

      .st11, .st12 {
        font-family: Helvetica-Bold, Helvetica;
        font-weight: 700;
      }

      .st12 {
        fill: #333;
      }

      .st2 {
        stroke-dasharray: .8 1.32;
      }

      .st24 {
        clip-path: url(#clippath);
      }
    </style>
    <clipPath id="clippath">
      <rect class="st0" x="7.2" y="8.94" width="770.4" height="518.4"/>
    </clipPath>
    <clipPath id="clippath-1">
      <rect class="st0" x="7.2" y="8.94" width="770.4" height="518.4"/>
    </clipPath>
    <clipPath id="clippath-2">
      <rect class="st0" x="7.2" y="8.94" width="770.4" height="518.4"/>
    </clipPath>
    <clipPath id="clippath-3">
      <rect class="st0" x="7.2" y="8.94" width="770.4" height="518.4"/>
    </clipPath>
    <clipPath id="clippath-4">
      <rect class="st0" x="7.2" y="8.94" width="770.4" height="518.4"/>
    </clipPath>
    <clipPath id="clippath-5">
      <rect class="st0" x="7.2" y="8.94" width="770.4" height="518.4"/>
    </clipPath>
    <clipPath id="clippath-6">
      <rect class="st0" x="7.2" y="8.94" width="770.4" height="518.4"/>
    </clipPath>
    <clipPath id="clippath-7">
      <rect class="st0" x="7.2" y="8.94" width="770.4" height="518.4"/>
    </clipPath>
    <clipPath id="clippath-8">
      <rect class="st0" x="7.2" y="8.94" width="770.4" height="518.4"/>
    </clipPath>
    <clipPath id="clippath-9">
      <rect class="st0" x="7.2" y="8.94" width="770.4" height="518.4"/>
    </clipPath>
  </defs>
  <path class="st23" d="M0,534.54h784.8V1.74H0v532.8Z"/>
  <g class="st24">
    <path class="st4" d="M231.32,70.46h322.17c1.87,0,2.8-.92,2.8-2.76V19.31c0-1.84-.93-2.76-2.8-2.76H231.32c-1.87,0-2.8.92-2.8,2.76v48.38c0,1.84.93,2.76,2.8,2.76Z"/>
  </g>
  <g class="st14">
    <path class="st4" d="M56.23,174.14h182.09c1.87,0,2.8-.92,2.8-2.76v-62.21c0-1.84-.93-2.76-2.8-2.76H56.23c-1.87,0-2.8.92-2.8,2.76v62.21c0,1.84.93,2.76,2.8,2.76Z"/>
  </g>
  <g class="st17">
    <path class="st3" d="M287.35,174.14h210.11c1.87,0,2.8-.92,2.8-2.76v-62.21c0-1.84-.93-2.76-2.8-2.76h-210.11c-1.87,0-2.8.92-2.8,2.76v62.21c0,1.84.93,2.76,2.8,2.76Z"/>
  </g>
  <g class="st15">
    <path class="st3" d="M532.47,174.14h210.11c1.87,0,2.8-.92,2.8-2.76v-62.21c0-1.84-.93-2.76-2.8-2.76h-210.11c-1.87,0-2.8.92-2.8,2.76v62.21c0,1.84.93,2.76,2.8,2.76Z"/>
  </g>
  <g class="st16">
    <path class="st4" d="M56.23,315.83h182.09c1.87,0,2.8-.92,2.8-2.76v-69.12c0-1.84-.93-2.76-2.8-2.76H56.23c-1.87,0-2.8.92-2.8,2.76v69.12c0,1.84.93,2.76,2.8,2.76Z"/>
  </g>
  <g class="st22">
    <path class="st3" d="M287.35,288.18h210.11c1.87,0,2.8-.92,2.8-2.76v-55.3c0-1.84-.93-2.76-2.8-2.76h-210.11c-1.87,0-2.8.92-2.8,2.76v55.3c0,1.84.93,2.76,2.8,2.76Z"/>
  </g>
  <g class="st19">
    <path class="st3" d="M287.35,357.3h210.11c1.87,0,2.8-.92,2.8-2.76v-55.3c0-1.84-.93-2.76-2.8-2.76h-210.11c-1.87,0-2.8.92-2.8,2.76v55.3c0,1.84.93,2.76,2.8,2.76Z"/>
  </g>
  <g class="st18">
    <path class="st8" d="M56.23,502.46h182.09c1.87,0,2.8-.92,2.8-2.76v-82.94c0-1.84-.93-2.76-2.8-2.76H56.23c-1.87,0-2.8.92-2.8,2.76v82.94c0,1.84.93,2.76,2.8,2.76Z"/>
  </g>
  <g class="st21">
    <path class="st8" d="M287.35,502.46h210.11c1.87,0,2.8-.92,2.8-2.76v-82.94c0-1.84-.93-2.76-2.8-2.76h-210.11c-1.87,0-2.8.92-2.8,2.76v82.94c0,1.84.93,2.76,2.8,2.76Z"/>
  </g>
  <g class="st20">
    <path class="st4" d="M532.47,502.46h210.11c1.87,0,2.8-.92,2.8-2.76v-82.94c0-1.84-.93-2.76-2.8-2.76h-210.11c-1.87,0-2.8.92-2.8,2.76v82.94c0,1.84.93,2.76,2.8,2.76Z"/>
  </g>
  <text class="st12" transform="translate(17.71 46.04)"><tspan x="0" y="0">Browser</tspan></text>
  <text class="st12" transform="translate(17.71 142.81)"><tspan x="0" y="0">API</tspan></text>
  <text class="st12" transform="translate(1.71 281.15)"><tspan x="0" y="0">Compute</tspan></text>
  <text class="st12" transform="translate(17.71 446.94)"><tspan x="0" y="0">Data</tspan></text>
  <text class="st11" transform="translate(234.91 58.71)"><tspan x="0" y="0">React frontend (fork of connectivity-search-frontend)</tspan></text>
  <text class="st9" transform="translate(106.52 125.11)"><tspan x="0" y="0">Reused endpoints</tspan></text>
  <text class="st9" transform="translate(116.09 142.19)"><tspan x="0" y="0">Node search</tspan></text>
  <text class="st9" transform="translate(108.08 159.26)"><tspan x="0" y="0">Metanode lookup</tspan></text>
  <text class="st11" transform="translate(346.14 139.68)"><tspan x="0" y="0">New endpoint</tspan></text>
  <text class="st11" transform="translate(328.05 161.2)"><tspan x="0" y="0">POST /v1/gene-set/query</tspan></text>
  <text class="st11" transform="translate(596.1 140.4)"><tspan x="0" y="0">New endpoint</tspan></text>
  <text class="st11" transform="translate(588.47 161.2)"><tspan x="0" y="0">POST /v1/gene-set/paths</tspan></text>
  <text class="st9" transform="translate(111.36 261.43)"><tspan x="0" y="0">Django ORM</tspan></text>
  <text class="st9" transform="translate(103.79 278.51)"><tspan x="0" y="0">Node / Metanode</tspan></text>
  <text class="st9" transform="translate(104.9 295.58)"><tspan x="0" y="0">Metapath lookup</tspan></text>
  <text class="st11" transform="translate(350.14 255.44)"><tspan x="0" y="0">query_metapath_z</tspan></text>
  <text class="st11" transform="translate(325.9 272.35)"><tspan x="0" y="0">(on-demand DWPC + null)</tspan></text>
  <text class="st11" transform="translate(303.6 324.49)"><tspan x="0" y="0">query_intermediates_and_paths</tspan></text>
  <text class="st11" transform="translate(335.6 344.63)"><tspan x="0" y="0">(Cypher + scoring layer)</tspan></text>
  <text class="st9" transform="translate(118.14 433.04)"><tspan x="0" y="0">Postgres</tspan></text>
  <text class="st9" transform="translate(103.24 450.12)"><tspan x="0" y="0">Node, Metanode,</tspan></text>
  <text class="st9" transform="translate(117.24 467.19)"><tspan x="0" y="0">Metapath</tspan></text>
  <text class="st9" transform="translate(97.02 484.27)"><tspan x="0" y="0">(no PathCount/DGP)</tspan></text>
  <text class="st11" transform="translate(349.8 438.88)"><tspan x="0" y="0">HetMat data dir</tspan></text>
  <text class="st11" transform="translate(335.59 455.97)"><tspan x="0" y="0">DWPC sparse matrices</tspan></text>
  <text class="st11" transform="translate(358.48 473.06)"><tspan x="0" y="0">(.npz, .tsv)</tspan></text>
  <text class="st11" transform="translate(345.35 490.15)"><tspan x="0" y="0">[mounted volume]</tspan></text>
  <text class="st9" transform="translate(618.69 438.67)"><tspan x="0" y="0">Neo4j</tspan></text>
  <text class="st9" transform="translate(602.9 455.75)"><tspan x="0" y="0">Hetionet graph</tspan></text>
  <text class="st9" transform="translate(601.57 472.82)"><tspan x="0" y="0">for Cypher path</tspan></text>
  <text class="st9" transform="translate(613.8 489.9)"><tspan x="0" y="0">traversal</tspan></text>
  <path class="st1" d="M392.4,69.69v36.58"/>
  <path class="st1" d="M394.4,102.27l-2,4-2-4"/>
  <path class="st1" d="M392.4,173.37v53.86"/>
  <path class="st1" d="M394.4,223.23l-2,4-2-4"/>
  <path class="st1" d="M392.4,287.42v8.93"/>
  <path class="st1" d="M394.4,292.35l-2,4-2-4"/>
  <path class="st1" d="M392.4,356.54v55.93"/>
  <path class="st1" d="M394.4,408.47l-2,4-2-4"/>
  <path class="st1" d="M147.27,173.37v67.68"/>
  <path class="st1" d="M149.27,237.05l-2,4-2-4"/>
  <path class="st1" d="M147.27,315.07v97.4"/>
  <path class="st1" d="M149.27,408.47l-2,4-2-4"/>
  <path class="st1" d="M636.05,172.72c-45.71,41.72-91.19,83.25-136.46,124.57"/>
  <path class="st1" d="M503.9,296.07l-4.3,1.22,1.61-4.17"/>
  <path class="st1" d="M499.15,327.96c45.56,28.78,90.87,57.4,135.93,85.86"/>
  <path class="st1" d="M632.76,409.99l2.31,3.83-4.45-.45"/>
  <text class="st10" transform="translate(556.21 364.1)"><tspan x="0" y="0">Cypher</tspan></text>
  <path class="st2" d="M240.32,278.51h44.13"/>
  <path class="st2" d="M280.45,276.51l4,2-4,2"/>
  <text class="st10" transform="translate(241.1 274.99)"><tspan x="0" y="0">node id</tspan></text>
  <text class="st10" transform="translate(241.87 287.42)"><tspan x="0" y="0">lookup</tspan></text>
  <text class="st11" transform="translate(271.72 36.24)"><tspan x="0" y="0">Multi-DWPC web tool: system architecture</tspan></text>
  <path class="st6" d="M567.82,298.72h16v-5.6h-16v5.6Z"/>
  <text class="st9" transform="translate(590.22 298.72)"><tspan x="0" y="0">Reused from connectivity-search</tspan></text>
  <path class="st7" d="M567.82,310.17h16v-5.6h-16v5.6Z"/>
  <text class="st9" transform="translate(590.22 310.17)"><tspan x="0" y="0">New for multi-DWPC</tspan></text>
  <path class="st5" d="M567.82,321.58h16v-5.6h-16v5.6Z"/>
  <text class="st9" transform="translate(590.22 321.58)"><tspan x="0" y="0">Data store</tspan></text>
  <g>
    <path class="st1" d="M501.74,246.84c27.44-23.76,54.75-47.41,81.94-70.96"/>
    <path class="st13" d="M587.33,172.72c-1.17,2.12-2.35,5.06-2.68,7.35l-1.45-3.78-3.53-1.97c2.32,0,5.39-.75,7.66-1.6Z"/>
  </g>
</svg>